# xmcd
# 
# Track frame offsets:
#     150
#     45893
#     85930
#     125594
#     137203
#     169814
#     210322
#     220602
#     243687
#     259806
#     292992
#     335523
# 
# Disc length: 4649
# 
# Revision: 1
# Processed by: cddbd v1.5.2PL0 Copyright (c) Steve Scherf et al.
# Submitted via: BonkEnc v1.0.8
# 
DISCID=ae12270c
DTITLE=Eddie Henderson - Realization - Inside Out
DYEAR=1973
DGENRE=Fusion
TTITLE0=Scorpio-Libra
TTITLE1=Mars in Libra
TTITLE2=Anua
TTITLE3=Spiritual awakening
TTITLE4=Revelation Realization
TTITLE5=Moussaka
TTITLE6=Omnipresence
TTITLE7=Discoveries
TTITLE8=Fusion
TTITLE9=Dreams
TTITLE10=Inside out
TTITLE11=Exit #1
EXTD=YEAR: 1973
EXTT0=
EXTT1=
EXTT2=
EXTT3=
EXTT4=
EXTT5=
EXTT6=
EXTT7=
EXTT8=
EXTT9=
EXTT10=
EXTT11=
PLAYORDER=
